<?xml version="1.0" encoding="UTF-8"?>
<svg xmlns="http://www.w3.org/2000/svg" viewBox="0 0 24 24" width="24" height="24">
  <path d="M12 2.2c-3.6 0-6.4 2.9-6.4 6.4 0 2.4 1.3 4.5 3.2 5.7v2.1c0 0.7 0.6 1.3 1.3 1.3h3.8c0.7 0 1.3-0.6 1.3-1.3v-2.1c1.9-1.2 3.2-3.3 3.2-5.7 0-3.5-2.8-6.4-6.4-6.4z"
        fill="none" stroke="currentColor" stroke-width="1.4" stroke-opacity="0.7"/>
  <rect x="9.4" y="18.4" width="5.2" height="1.6" rx="0.4" fill="currentColor" fill-opacity="0.55"/>
  <rect x="9.6" y="20.4" width="4.8" height="1.2" rx="0.4" fill="currentColor" fill-opacity="0.4"/>
  <path d="M11 7.5 L11 13 M13 7.5 L13 13 M11 10 L13 10" stroke="currentColor" stroke-width="0.7" stroke-opacity="0.45" fill="none"/>
</svg>
